<?xml version="1.0" encoding="utf-8"?>
<!-- Generator: Adobe Illustrator 23.0.1, SVG Export Plug-In . SVG Version: 6.00 Build 0)  -->
<svg version="1.1" id="Layer_1" xmlns="http://www.w3.org/2000/svg" xmlns:xlink="http://www.w3.org/1999/xlink" x="0px" y="0px"
	 viewBox="0 0 257 113" style="enable-background:new 0 0 257 113;" xml:space="preserve">
<style type="text/css">
	.st0{fill:#78A22F;}
	.st1{fill:#5F6062;}
	.st2{fill:#0079C1;}
	.st3{fill-rule:evenodd;clip-rule:evenodd;fill:#0079C1;}
</style>
<g>
	<path class="st0" d="M71.9,79.8l7.1-0.7c2.6-0.2,4.7-3.2,4.7-6.5V39c0-3.4-2.1-6.3-4.7-6.6l-7.1-0.7V79.8z"/>
	<g>
		<path class="st1" d="M96.8,32.8h7.6c4.6,0,7.6,2.4,7.6,6.4v0.1c0,4.4-3.6,6.6-7.9,6.6h-4.9V53h-2.3V32.8z M104.1,43.8
			c3.4,0,5.6-1.8,5.6-4.5v-0.1c0-2.9-2.2-4.4-5.4-4.4h-5.1v8.9H104.1z"/>
		<path class="st1" d="M115.4,32.4h2.5v2.5h-2.5V32.4z M115.5,38.1h2.2V53h-2.2V38.1z"/>
		<path class="st1" d="M129.1,51.4c2.1,0,3.5-0.8,4.7-2.1l1.4,1.2c-1.5,1.7-3.3,2.8-6.2,2.8c-4.1,0-7.5-3.2-7.5-7.8
			c0-4.3,3-7.8,7.2-7.8c4.4,0,7,3.5,7,7.9c0,0.2,0,0.4,0,0.8h-11.9C124.2,49.6,126.5,51.4,129.1,51.4z M133.5,44.7
			c-0.3-2.7-1.8-5-4.8-5c-2.6,0-4.5,2.1-4.9,5H133.5z"/>
		<path class="st1" d="M138.3,45.6L138.3,45.6c0-4.9,3.6-7.8,7.1-7.8c2.8,0,4.6,1.5,5.7,3.2v-9h2.2V53h-2.2v-3
			c-1.2,1.8-3,3.3-5.7,3.3C141.9,53.4,138.3,50.5,138.3,45.6z M151.3,45.6L151.3,45.6c0-3.5-2.6-5.8-5.4-5.8c-2.9,0-5.3,2.1-5.3,5.8
			v0.1c0,3.5,2.4,5.8,5.3,5.8C148.6,51.4,151.3,49,151.3,45.6z"/>
		<path class="st1" d="M157.9,38.1h2.2v2.5c1-1.5,2.3-2.8,4.8-2.8c2.4,0,4,1.3,4.8,3c1.1-1.6,2.7-3,5.3-3c3.4,0,5.6,2.3,5.6,6V53
			h-2.2v-8.7c0-2.9-1.4-4.5-3.9-4.5c-2.3,0-4.1,1.7-4.1,4.6V53h-2.2v-8.8c0-2.8-1.5-4.5-3.8-4.5c-2.4,0-4.2,2-4.2,4.7V53h-2.2V38.1z
			"/>
		<path class="st1" d="M184.1,45.6L184.1,45.6c0-4.3,3.3-7.9,7.8-7.9c4.5,0,7.8,3.5,7.8,7.7v0.1c0,4.2-3.3,7.8-7.8,7.8
			C187.3,53.4,184.1,49.9,184.1,45.6z M197.4,45.6L197.4,45.6c0-3.3-2.4-5.9-5.6-5.9c-3.2,0-5.5,2.6-5.5,5.8v0.1
			c0,3.2,2.4,5.8,5.5,5.8C195.1,51.4,197.4,48.8,197.4,45.6z"/>
		<path class="st1" d="M203.2,38.1h2.2v2.6c1-1.6,2.5-2.9,5.1-2.9c3.6,0,5.7,2.4,5.7,6V53h-2.2v-8.7c0-2.8-1.5-4.5-4.1-4.5
			c-2.6,0-4.5,1.9-4.5,4.7V53h-2.2V38.1z"/>
		<path class="st1" d="M221.4,49.1v-9h-2.1v-2h2.1v-4.5h2.2v4.5h4.7v2h-4.7v8.7c0,1.8,1,2.5,2.5,2.5c0.8,0,1.4-0.1,2.2-0.5v1.9
			c-0.8,0.4-1.6,0.6-2.7,0.6C223.2,53.3,221.4,52.1,221.4,49.1z"/>
		<path class="st1" d="M96.8,58.2H99l12.7,16.2V58.2h2.2v20.2h-1.8L99.1,61.9v16.6h-2.2V58.2z"/>
		<path class="st1" d="M117.7,74.1L117.7,74.1c0-3.3,2.6-4.9,6.4-4.9c1.9,0,3.2,0.3,4.6,0.6v-0.5c0-2.7-1.6-4-4.4-4
			c-1.8,0-3.2,0.4-4.5,1.1l-0.7-1.8c1.6-0.8,3.2-1.3,5.4-1.3c2.1,0,3.8,0.6,4.8,1.6c1,1,1.6,2.5,1.6,4.4v9.1h-2.2v-2.2
			c-1,1.3-2.7,2.5-5.4,2.5C120.5,78.8,117.7,77.2,117.7,74.1z M128.7,73v-1.4c-1.1-0.3-2.5-0.6-4.4-0.6c-2.8,0-4.4,1.2-4.4,3V74
			c0,1.9,1.7,3,3.8,3C126.5,77,128.7,75.4,128.7,73z"/>
		<path class="st1" d="M135.8,74.5v-9h-2.1v-2h2.1V59h2.2v4.5h4.7v2H138v8.7c0,1.8,1,2.5,2.5,2.5c0.8,0,1.4-0.1,2.2-0.5v1.9
			c-0.8,0.4-1.6,0.6-2.7,0.6C137.6,78.7,135.8,77.6,135.8,74.5z"/>
		<path class="st1" d="M146,72.8v-9.3h2.2v8.7c0,2.8,1.5,4.5,4.1,4.5c2.5,0,4.5-1.9,4.5-4.7v-8.6h2.2v14.9h-2.2v-2.6
			c-1,1.6-2.5,2.9-5.1,2.9C148.2,78.8,146,76.4,146,72.8z"/>
		<path class="st1" d="M163.6,63.5h2.2v3.9c1.1-2.5,3.3-4.3,6.1-4.2v2.4h-0.2c-3.3,0-5.9,2.3-5.9,6.9v6h-2.2V63.5z"/>
		<path class="st1" d="M173.1,74.1L173.1,74.1c0-3.3,2.6-4.9,6.4-4.9c1.9,0,3.2,0.3,4.6,0.6v-0.5c0-2.7-1.6-4-4.4-4
			c-1.8,0-3.2,0.4-4.5,1.1l-0.7-1.8c1.6-0.8,3.2-1.3,5.4-1.3c2.1,0,3.8,0.6,4.8,1.6c1,1,1.6,2.5,1.6,4.4v9.1H184v-2.2
			c-1,1.3-2.7,2.5-5.4,2.5C175.8,78.8,173.1,77.2,173.1,74.1z M184.1,73v-1.4c-1.1-0.3-2.5-0.6-4.4-0.6c-2.8,0-4.4,1.2-4.4,3V74
			c0,1.9,1.7,3,3.8,3C181.8,77,184.1,75.4,184.1,73z"/>
		<path class="st1" d="M190.7,57.4h2.2v21.1h-2.2V57.4z"/>
		<path class="st1" d="M205.4,68.4L205.4,68.4c0-5.6,4.1-10.5,10.1-10.5c3.4,0,5.5,1,7.5,2.7l-1.5,1.7c-1.6-1.4-3.3-2.3-6.2-2.3
			c-4.5,0-7.7,3.8-7.7,8.3v0.1c0,4.8,3.1,8.4,8,8.4c2.3,0,4.5-0.9,5.8-2v-5h-6.2v-2.1h8.4v8.1c-1.9,1.7-4.7,3.1-8.1,3.1
			C209.3,78.8,205.4,74.2,205.4,68.4z"/>
		<path class="st1" d="M227.3,74.1L227.3,74.1c0-3.3,2.6-4.9,6.4-4.9c1.9,0,3.2,0.3,4.6,0.6v-0.5c0-2.7-1.6-4-4.4-4
			c-1.8,0-3.2,0.4-4.5,1.1l-0.7-1.8c1.6-0.8,3.2-1.3,5.4-1.3c2.1,0,3.8,0.6,4.8,1.6c1,1,1.6,2.5,1.6,4.4v9.1h-2.2v-2.2
			c-1,1.3-2.7,2.5-5.4,2.5C230.1,78.8,227.3,77.2,227.3,74.1z M238.3,73v-1.4c-1.1-0.3-2.5-0.6-4.4-0.6c-2.8,0-4.4,1.2-4.4,3V74
			c0,1.9,1.7,3,3.8,3C236.1,77,238.3,75.4,238.3,73z"/>
		<path class="st1" d="M243.5,76.6l1.1-1.6c1.6,1.2,3.4,1.9,5.2,1.9c1.8,0,3.1-0.9,3.1-2.4v-0.1c0-1.5-1.8-2.1-3.7-2.6
			c-2.3-0.7-4.9-1.5-4.9-4.2v-0.1c0-2.6,2.1-4.3,5.1-4.3c1.8,0,3.8,0.6,5.4,1.6l-1,1.7c-1.4-0.9-3-1.4-4.4-1.4
			c-1.8,0-2.9,0.9-2.9,2.2v0.1c0,1.4,1.9,2,3.8,2.6c2.3,0.7,4.8,1.6,4.8,4.3v0.1c0,2.8-2.3,4.5-5.3,4.5
			C247.5,78.8,245.2,77.9,243.5,76.6z"/>
	</g>
	<g>
		<path class="st2" d="M9.1,62.6C12.4,49.5,19.6,40,22.2,26.9L9.1,25.7c-4.4-0.4-8,2.9-8,7.5v45.4c0,4.5,3.7,7.9,8,7.5l7.7-0.8
			C9.7,82,6.9,71.8,9.1,62.6z"/>
		<path class="st2" d="M31.4,27.8c2.4,12.9,8.7,22.2,11.4,33.9c1.8,7.9-0.5,17.3-6.5,21.5L69.6,80V31.5L31.4,27.8z"/>
	</g>
	<path class="st3" d="M40,61.8c-2.8-12.1-9.8-21.6-11.9-35.3c-0.1-0.7-0.3-0.9-0.5-0.9c-0.2,0-0.4,0.1-0.5,0.8
		C25,40,17.3,49.3,14,62.4c-2.8,11,2.4,23.5,13.5,22.4C38,83.8,42.3,71.6,40,61.8z M31.3,81.8c1.1-1.7,1.4-4.1,0.9-6.1
		c-1.1-4.4-3.7-7.7-4.4-12.6c0-0.2-0.1-0.3-0.2-0.3c-0.1,0-0.1,0.1-0.2,0.3c-0.8,5-3.4,8.5-4.6,13.2c-0.5,2.2-0.2,4.6,1,6.2
		c-4.8-1.9-6.8-8.6-5.3-14.6c2.2-8.9,7.3-15.3,8.8-24.6c0.1-0.5,0.2-0.6,0.3-0.6c0.1,0,0.3,0.1,0.3,0.6c1.4,9.3,6.3,15.6,8.2,23.9
		C37.4,72.6,35.7,79.1,31.3,81.8z"/>
</g>
</svg>
